<svg xmlns="http://www.w3.org/2000/svg" viewBox="0 0 64 64" width="64" height="64">
  <defs>
    <linearGradient id="bg" x1="0%" y1="0%" x2="100%" y2="100%">
      <stop offset="0%" stop-color="#4A5CF5"/>
      <stop offset="100%" stop-color="#7B8FF7"/>
    </linearGradient>
  </defs>
  <rect width="64" height="64" rx="14" fill="url(#bg)"/>
  <!-- Bar chart -->
  <rect x="14" y="36" width="8" height="14" rx="1.5" fill="white" opacity="0.85"/>
  <rect x="25" y="28" width="8" height="22" rx="1.5" fill="white" opacity="0.9"/>
  <rect x="36" y="20" width="8" height="30" rx="1.5" fill="white" opacity="0.95"/>
  <!-- Cloud -->
  <path d="M52 26c0-3.3-2.7-6-6-6-.5-3.4-3.5-6-7-6-3.9 0-7 3.1-7 7 0 .3 0 .7.1 1C30.3 22.4 29 24 29 26c0 2.2 1.8 4 4 4h15c2.2 0 4-1.8 4-4z" fill="white" opacity="0.6"/>
</svg>
